SplineFontDB: 3.0
FontName: BulmerStM
FullName: Sorts Mill Bulmer
FamilyName: Sorts Mill Bulmer
Weight: Regular
Copyright: Created by trashman with FontForge 2.0 (http://fontforge.sf.net)
UComments: "2010-10-5: Created." 
Version: 001.000
ItalicAngle: 0
UnderlinePosition: -100
UnderlineWidth: 50
Ascent: 680
Descent: 320
LayerCount: 3
Layer: 0 0 "Back"  1
Layer: 1 0 "Fore"  0
Layer: 2 0 "backup"  0
NeedsXUIDChange: 1
XUID: [1021 658 797806517 5336769]
OS2Version: 0
OS2_WeightWidthSlopeOnly: 0
OS2_UseTypoMetrics: 1
CreationTime: 1286303174
ModificationTime: 1288340359
OS2TypoAscent: 0
OS2TypoAOffset: 1
OS2TypoDescent: 0
OS2TypoDOffset: 1
OS2TypoLinegap: 0
OS2WinAscent: 0
OS2WinAOffset: 1
OS2WinDescent: 0
OS2WinDOffset: 1
HheadAscent: 0
HheadAOffset: 1
HheadDescent: 0
HheadDOffset: 1
OS2Vendor: 'PfEd'
MarkAttachClasses: 1
DEI: 91125
Encoding: UnicodeBmp
UnicodeInterp: none
NameList: Adobe Glyph List
DisplaySize: -48
AntiAlias: 1
FitToEm: 1
WinInfo: 77 11 5
BeginPrivate: 9
BlueValues 23 [-16 0 380 396 672 672]
OtherBlues 11 [-279 -269]
BlueScale 8 0.039625
BlueShift 1 7
BlueFuzz 1 0
StdHW 4 [29]
StemSnapH 4 [29]
StdVW 4 [81]
StemSnapV 14 [78 81 91 102]
EndPrivate
BeginChars: 65536 76

StartChar: a
Encoding: 97 97 0
Width: 409
VWidth: 0
Flags: W
LayerCount: 3
Fore
SplineSet
331 66 m 2
 331 50 332 30 356 30 c 0
 362 30 369 33 373 37 c 0
 378 42 380 47 385 47 c 0
 394 47 398 40 398 31 c 0
 398 5 364 -12 335 -12 c 0
 265 -12 252 54 252 54 c 1
 252 54 233 34 208 16 c 0
 187 1 162 -12 135 -12 c 0
 80 -12 40 26 40 75 c 0
 40 133 91 183 151 207 c 0
 186 221 218 226 250 230 c 1
 250 305 l 2
 250 352 219 371 178 371 c 0
 164 371 149 370 139 362 c 0
 125 351 120 336 120 314 c 0
 120 297 96 284 81 284 c 0
 58 284 43 300 43 323 c 0xbc
 43 371 123 392 192 392 c 0
 266 392 331 355 331 295 c 2
 331 66 l 2
250 211 m 1
 250 211 125 196 125 115 c 0
 125 79 144 42 189 42 c 0xbc
 204 42 250 63 250 93 c 2
 250 211 l 1
EndSplineSet
Layer: 2
SplineSet
43 323 m 0xbc
 43 371 123 392 192 392 c 0
 266 392 331 355 331 295 c 2
 331 66 l 6
 331 50 332 30 356 30 c 4
 362 30 369 33 373 37 c 4
 378 42 380 47 385 47 c 4
 394 47 398 40 398 31 c 4
 398 5 364 -12 335 -12 c 4x7c
 265 -12 252 54 252 54 c 5
 252 54 233 34 208 16 c 0
 187 1 162 -12 135 -12 c 0
 80 -12 40 26 40 75 c 0
 40 133 91 183 151 207 c 0
 186 221 218 226 250 230 c 1
 250 305 l 2
 250 352 219 371 178 371 c 0
 164 371 149 370 139 362 c 0
 125 351 120 336 120 314 c 0
 120 297 96 284 81 284 c 0
 58 284 43 300 43 323 c 0xbc
250 211 m 1
 250 211 125 196 125 115 c 0
 125 79 144 42 189 42 c 0xbc
 204 42 250 63 250 93 c 2
 250 211 l 1
EndSplineSet
EndChar

StartChar: b
Encoding: 98 98 1
Width: 492
VWidth: 0
Flags: W
HStem: -14 31<198.499 298.61> -2 30<14.0087 68.4543> 369 24<215.288 302.141> 624 27<19.0364 58>
VStem: 72 79<56.0018 320.335 449.2 621.25> 72 72<29.4875 64 316 527.909> 367 91<101.723 285.725>
LayerCount: 3
Fore
SplineSet
146 316 m 1x76
 165 354 206 393 276 393 c 0
 368 393 458 307 458 192 c 0
 458 90 378 -14 261 -14 c 0
 168 -14 144 64 144 64 c 1
 144 4 l 2xb6
 144 -3 140 -7 134 -6 c 0
 106 -2 91 -2 75 -2 c 2
 39 -2 l 2
 26 -2 14 0 14 13 c 0
 14 25 26 28 33 28 c 0
 70 30 72 32 72 89 c 2
 72 562 l 2x7a
 72 593 69 618 58 620 c 2
 33 624 l 2
 23 626 19 630 19 636 c 0
 19 647 22 650 33 651 c 0
 69 655 138 669 144 669 c 0
 154 669 155 659 155 649 c 2
 146 316 l 1x76
367 190 m 0
 367 280 337 369 257 369 c 0
 183 369 151 302 151 238 c 2
 151 159 l 2xba
 151 80 171 17 245 17 c 0
 343 17 367 126 367 190 c 0
EndSplineSet
Layer: 2
SplineSet
146 316 m 5x7c
 165 354 206 393 276 393 c 4
 368 393 458 307 458 192 c 4
 458 90 378 -14 261 -14 c 4xbc
 179 -14 164 39 157 39 c 4
 153 39 150 14 148 4 c 4
 147 -3 144 -6 138 -6 c 4
 130 -6 116 -2 101 -2 c 6
 39 -2 l 6
 26 -2 14 0 14 13 c 4
 14 25 26 28 33 28 c 4
 70 30 72 32 72 89 c 6
 72 562 l 6
 72 593 69 618 58 620 c 6
 33 624 l 6
 23 626 19 630 19 636 c 4
 19 647 22 650 33 651 c 4
 69 655 138 669 144 669 c 4
 154 669 155 659 155 649 c 6
 146 316 l 5x7c
367 190 m 4
 367 280 337 369 257 369 c 4
 183 369 151 302 151 238 c 6
 151 159 l 6
 151 80 171 17 245 17 c 4
 343 17 367 126 367 190 c 4
EndSplineSet
EndChar

StartChar: c
Encoding: 99 99 2
Width: 416
VWidth: 0
Flags: W
LayerCount: 3
Fore
SplineSet
23 183 m 0
 23 294 129 396 237 396 c 0
 296 396 381 373 381 309 c 0
 381 282 365 267 340 267 c 0
 326 267 310 280 310 296 c 0xf0
 310 317 312 316 312 331 c 0
 312 340 300 373 244 373 c 0
 150 373 116 277 116 191 c 0
 116 114 158 29 247 29 c 0
 297 29 326 49 346 83 c 0
 352 92 356 100 365 101 c 0
 371 102 379 97 379 89 c 0
 379 56 340 20 314 7 c 0
 284 -8 251 -16 217 -16 c 0
 100 -16 23 74 23 183 c 0
EndSplineSet
EndChar

StartChar: d
Encoding: 100 100 3
Width: 500
VWidth: 0
Flags: W
LayerCount: 3
Fore
SplineSet
418 225 m 2x2d
 418 204 l 2
 418 102 422 37 438 35 c 2
 472 30 l 2
 481 29 481 26 481 19 c 0
 481 8 478 3 462 2 c 0
 426 1 395 -4 373 -8 c 0
 368 -9 363 -9 360 -9 c 0
 347 -9 346 -2 346 10 c 2
 346 68 l 1x6d
 328 24 256 -15 217 -15 c 0
 73 -15 26 85 26 190 c 0
 26 284 99 391 222 391 c 0
 301 391 342 336 342 336 c 1
 342 550 l 2
 342 574 340 598 339 614 c 0
 338 627 329 632 319 631 c 2
 295 629 l 2
 283 629 275 632 275 647 c 0
 275 657 285 661 296 662 c 0
 318 664 361 669 394 674 c 0
 401 675 407 676 412 676 c 0
 421 676 425 672 425 655 c 0
 425 639 418 600 418 225 c 2x2d
113 176 m 0
 113 103 156 22 236 22 c 0xa4
 319 22 343 77 343 152 c 2
 343 268 l 2
 343 329 300 366 234 366 c 0
 154 366 113 268 113 176 c 0
EndSplineSet
EndChar

StartChar: e
Encoding: 101 101 4
Width: 406
VWidth: 0
Flags: W
HStem: -16 51<180.312 300.701> 241 24<122 279.605> 370 28<175.452 257.919>
VStem: 27 89<110.953 238.036> 290 79<271.076 328.848> 346 29<76.091 116.948>
LayerCount: 3
Fore
SplineSet
27 178 m 0xf4
 27 285 101 398 219 398 c 0
 305 398 357 342 368 270 c 0
 368 267 369 264 369 262 c 0xf8
 369 239 350 238 337 238 c 0
 318 238 117 241 117 241 c 1
 117 241 116 222 116 213 c 0
 116 99 173 35 248 35 c 0
 296 35 332 64 346 103 c 0
 351 116 357 117 362 117 c 0
 370 117 375 109 375 102 c 0
 375 86 367 67 358 54 c 0
 329 13 273 -16 216 -16 c 0
 99 -16 27 70 27 178 c 0xf4
216 370 m 0
 140 370 122 265 122 265 c 1
 122 265 135 265 242 268 c 0
 268 269 290 270 290 308 c 0
 290 338 254 370 216 370 c 0
EndSplineSet
EndChar

StartChar: f
Encoding: 102 102 5
Width: 254
VWidth: 0
Flags: W
LayerCount: 3
Fore
SplineSet
157 330 m 2
 157 74 l 2
 157 48 158 30 173 30 c 2
 205 30 l 2
 222 30 223 24 223 14 c 0
 223 0 220 -2 205 -2 c 0
 180 -2 137 0 118 0 c 0
 97 0 64 -2 41 -2 c 0
 27 -2 26 0 26 5 c 2
 26 14 l 2
 26 30 29 30 46 30 c 2
 62 30 l 2
 76 30 77 55 77 85 c 2
 78 331 l 2
 78 340 78 341 63 341 c 2
 46 341 l 2
 33 341 29 342 29 357 c 0
 29 371 33 372 46 372 c 2
 64 372 l 2
 77 372 78 372 78 385 c 2
 78 458 l 2
 78 569 124 663 257 663 c 0
 299 663 350 647 350 595 c 0
 350 565 322 552 307 552 c 0
 282 552 262 566 262 596 c 0
 262 608 264 618 264 625 c 0
 264 639 256 642 241 642 c 0
 161 642 157 528 157 486 c 2
 157 384 l 2
 157 373 157 372 169 372 c 2
 211 372 l 2
 223 372 229 370 229 356 c 0
 229 343 225 341 211 341 c 2
 169 341 l 2
 157 341 157 340 157 330 c 2
EndSplineSet
EndChar

StartChar: g
Encoding: 103 103 6
Width: 434
VWidth: 0
Flags: W
LayerCount: 3
Fore
SplineSet
188 366 m 0
 134 366 112 295 112 237 c 0
 112 186 128 124 184 124 c 0
 242 124 257 181 257 232 c 0
 257 288 245 366 188 366 c 0
366 390 m 0
 400 390 422 372 422 342 c 0
 422 323 415 308 395 308 c 0
 352 308 365 364 332 364 c 0
 318 364 304 352 296 344 c 0
 290 338 291 337 297 330 c 0
 309 316 332 281 332 238 c 0
 332 169 283 105 184 105 c 0
 168 105 126 102 126 66 c 0
 126 26 153 24 215 24 c 0
 323 24 422 23 422 -108 c 0
 422 -248 284 -278 220 -278 c 0
 118 -278 28 -230 28 -142 c 0
 28 -94 57 -65 91 -55 c 0
 101 -52 124 -46 141 -44 c 1
 108 -33 81 -11 81 32 c 0
 81 86 136 111 136 111 c 1
 136 111 32 128 32 248 c 0
 32 328 106 384 186 384 c 0
 224 384 253 367 268 356 c 0
 279 349 279 347 287 355 c 0
 299 367 325 390 366 390 c 0
166 -50 m 1
 169 -56 169 -66 162 -67 c 0
 110 -72 94 -109 94 -148 c 0
 94 -193 121 -246 224 -246 c 0
 311 -246 367 -199 367 -127 c 0
 367 -68 293 -59 223 -56 c 0
 205 -55 185 -54 166 -50 c 1
EndSplineSet
Layer: 2
SplineSet
366 390 m 4
 400 390 422 372 422 342 c 4
 422 323 415 308 395 308 c 4
 352 308 365 364 332 364 c 4
 318 364 304 352 296 344 c 4
 290 338 291 337 297 330 c 4
 309 316 332 281 332 238 c 4
 332 169 283 105 184 105 c 4
 168 105 126 102 126 66 c 4
 126 26 153 24 215 24 c 4
 323 24 422 23 422 -108 c 4
 422 -248 284 -278 220 -278 c 4
 118 -278 28 -230 28 -142 c 4
 28 -94 57 -65 91 -55 c 4
 103 -51 132 -43 150 -43 c 4
 155 -43 159 -44 162 -45 c 4
 167 -47 172 -66 162 -67 c 4
 110 -72 94 -109 94 -148 c 4xdcc0
 94 -193 121 -246 224 -246 c 4
 311 -246 367 -199 367 -127 c 4
 367 -68 293 -59 223 -56 c 4
 165 -54 81 -44 81 32 c 4xb9c0
 81 86 136 111 136 111 c 5
 136 111 32 128 32 248 c 4xbac0
 32 328 106 384 186 384 c 4
 224 384 253 367 268 356 c 4
 279 349 279 347 287 355 c 4
 299 367 325 390 366 390 c 4
188 366 m 4
 134 366 112 295 112 237 c 4
 112 186 128 124 184 124 c 4
 242 124 257 181 257 232 c 4
 257 288 245 366 188 366 c 4
EndSplineSet
EndChar

StartChar: h
Encoding: 104 104 7
Width: 516
VWidth: 0
Flags: W
LayerCount: 3
Fore
SplineSet
161 274 m 2
 159 74 l 2
 159 48 161 32 175 30 c 0
 183 29 195 29 202 28 c 0
 213 27 216 23 216 14 c 0
 216 0 210 -1 196 -1 c 0
 172 -1 137 0 117 0 c 0
 96 0 58 -2 39 -2 c 0
 21 -2 17 1 17 14 c 0
 17 25 22 30 38 30 c 2
 58 30 l 2
 72 30 77 47 77 73 c 2
 90 578 l 2
 90 610 87 627 72 627 c 0
 68 627 45 624 42 624 c 0
 32 624 25 626 25 639 c 0
 25 649 33 653 48 654 c 0
 80 657 108 662 139 667 c 0
 149 669 157 669 162 669 c 0
 171 669 172 664 172 645 c 0
 172 621 162 403 159 315 c 1
 159 315 203 386 298 386 c 0
 373.573296638 386 425.0049238 348.429377285 425.0049238 287.042093427 c 0
 425.0049238 216.026518056 423.669856148 145.004751664 423 74 c 0
 423 48 424 29 439 29 c 2
 451 29 l 2
 468 29 483 28 483 13 c 0
 483 1 476 -2 464 -2 c 0
 441 -2 405 0 384 0 c 0
 365 0 331 -2 309 -2 c 0
 290 -2 282 0 282 14 c 0
 282 25 289 28 304 28 c 2
 327 28 l 2
 341 28 341.147998803 47.0139634811 342 73 c 0
 344 134 344 194.137347414 344 255 c 0
 344 316 333 359 268 359 c 0
 207 359 161 302 161 274 c 2
EndSplineSet
EndChar

StartChar: i
Encoding: 105 105 8
Width: 255
VWidth: 0
Flags: W
LayerCount: 3
Fore
SplineSet
72 617 m 0x98
 72 647 96 671 126 671 c 0
 156 671 180 647 180 617 c 0
 180 587 156 563 126 563 c 0
 96 563 72 587 72 617 c 0x98
87 285 m 2xb4
 87 340 85 351 65 351 c 2
 49 351 l 2
 38 351 27 352 27 363 c 0
 27 377 37 378 47 378 c 0
 98 378 151 384 160 384 c 0
 172 384 172 378 172 370 c 0
 168 260 168 180 168 74 c 0
 168 48 171 30 186 30 c 2
 210 30 l 2
 226 30 232 27 232 13 c 0
 232 1 228 -2 214 -2 c 0
 198 -2 167 0 129 0 c 0
 103 0 65 -2 41 -2 c 0
 29 -2 23 0 23 14 c 0
 23 28 32 29 46 29 c 2
 72 29 l 2
 86 29 87 86 87 132 c 2
 87 285 l 2xb4
EndSplineSet
EndChar

StartChar: j
Encoding: 106 106 9
Width: 272
VWidth: 0
Flags: W
LayerCount: 3
Fore
SplineSet
190 34 m 2
 190 -12 189 -52 188 -89 c 0
 185 -190 104 -246 9 -246 c 0
 -56 -246 -89 -222 -89 -185 c 0
 -89 -163 -68 -135 -40 -135 c 0
 -16 -135 -4 -158 -2 -177 c 0
 -1 -187 -2 -205 5 -212 c 0
 11 -218 16 -220 29 -220 c 0
 109 -220 109 -106 109 -29 c 2
 109 220 l 2
 109 332 104 345 91 345 c 0
 83 345 76 344 68 343 c 0
 54 341 50 342 49 353 c 0
 48 366 49 369 66 371 c 0
 97 375 132 382 158 387 c 0
 167 389 174 390 179 390 c 0
 189 390 190 385 190 375 c 2
 190 34 l 2
90 620 m 0x9c
 90 650 114 674 144 674 c 0
 174 674 198 650 198 620 c 0
 198 590 174 566 144 566 c 0
 114 566 90 590 90 620 c 0x9c
EndSplineSet
EndChar

StartChar: k
Encoding: 107 107 10
Width: 476
VWidth: 0
Flags: W
LayerCount: 3
Fore
SplineSet
449 -2 m 0
 426 -2 393 0 374 0 c 0
 354 0 300 0 270 -1 c 0
 251 -1 246 2 246 14 c 0
 246 24 251 27 268 28 c 0
 279 29 284 28 284 33 c 0
 284 43 267 63 260 71 c 2
 183 163 l 2
 177 170 174 173 171 173 c 0
 166 173 165 163 165 151 c 2
 165 74 l 2
 165 48 169 30 182 29 c 2
 204 27 l 2
 211 26 218 24 218 14 c 0
 218 0 207 -1 197 -1 c 0
 188 -1 147 0 127 0 c 0
 106 0 66 -2 42 -2 c 0
 32 -2 27 0 27 12 c 0
 27 24 31 27 48 27 c 2
 70 27 l 2
 84 27 85 70 85 111 c 2
 85 568 l 2
 85 599 85 628 63 628 c 0
 58 628 41 625 35 625 c 0
 28 625 23 629 23 640 c 0
 23 648 28 651 42 653 c 0
 77 657 142 669 153 669 c 0
 167 669 169 662 169 651 c 0
 169 641 163 440 163 221 c 0
 163 205 164 200 167 200 c 0
 170 200 178 206 186 214 c 0
 215 241 260 285 277 316 c 0
 280 322 281 327 281 332 c 0
 281 353 237 346 237 362 c 0
 237 369 238 373 260 373 c 0
 279 373 302 372 320 372 c 0
 337 372 364 373 381 373 c 0
 400 373 406 367 406 360 c 0
 406 352 401 350 387 349 c 0
 382 349 374 349 365 345 c 0
 322 326 276 276 220 219 c 1xd8
 327 111 382 55 414 34 c 0
 425 27 429 30 440 28 c 0
 458 25 468 24 468 9 c 0
 468 -2 461 -2 449 -2 c 0
EndSplineSet
EndChar

StartChar: l
Encoding: 108 108 11
Width: 262
VWidth: 0
Flags: W
LayerCount: 3
Fore
SplineSet
173 238 m 2
 172 74 l 2
 172 48 173 30 188 30 c 2
 231 30 l 2
 241 30 247 28 247 14 c 0
 247 1 240 -2 234 -2 c 0
 227 -2 155 1 131 1 c 0
 107 1 59 -2 29 -2 c 0
 18 -2 11 0 11 14 c 0
 11 29 21 30 36 30 c 2
 72 30 l 2
 86 30 87 47 88 73 c 0
 93 252 96 539 96 591 c 0
 96 608 92 630 81 630 c 0
 77 630 52 628 49 628 c 0
 35 628 32 633 32 640 c 0
 32 652 37 655 53 657 c 0
 102 662 156 671 163 671 c 0
 179 671 180 664 180 648 c 0
 180 634 175 487 173 238 c 2
EndSplineSet
EndChar

StartChar: m
Encoding: 109 109 12
Width: 740
VWidth: 0
Flags: W
HStem: -2 32<28.0652 87.565 172.764 227.937 276.077 325.811 416.689 473.854 519.002 574.7 660.278 717.996> 344 30<31.1306 85.0442> 363 29<240.144 308.564 473.031 548.398>
VStem: 89 81<31.1272 341.999> 326 88<31.0256 208.25> 333 81<42.55 324.031> 576 82<30 343.074>
LayerCount: 3
Fore
SplineSet
166 295 m 1xb6
 166 295 200 392 301 392 c 0
 341 392 390 367 411 321 c 1
 432 352 467 392 541 392 c 0
 621 392 658 349 658 269 c 2
 658 73 l 2
 658 47 661 30 676 30 c 2
 697 30 l 2
 715 30 718 27 718 14 c 0
 718 -2 713 -2 699 -2 c 0
 676 -2 637 0 618 0 c 0
 598 0 559 -1 536 -2 c 0
 519 -2 519 6 519 15 c 0
 519 28 522 30 536 30 c 2
 561 30 l 2
 575 30 576 46 576 72 c 2
 576 246 l 2
 576 312 571 362 503 362 c 0
 477 362 432 333 422 301 c 0
 417 283 414 254 414 191 c 2
 414 73 l 2
 414 41 417 30 450 30 c 0
 466 30 474 28 474 17 c 0
 474 0 465 -1 450 -1 c 0
 428 -1 392 0 375 0 c 0
 357 0 323 -2 300 -2 c 0
 276 -2 276 11 276 16 c 0
 276 31 288 30 293 30 c 2
 303 30 l 2
 316 30 322 31 326 42 c 0xba
 330 52 333 174 333 210 c 2
 333 229 l 2
 333 285 333 363 275 363 c 0xb6
 206 363 170 292 170 209 c 0
 170 165 171 117 171 73 c 0
 171 31 175 30 210 30 c 0
 225 30 228 26 228 17 c 0
 228 5 226 -2 210 -2 c 0
 189 -2 152 0 132 0 c 0
 105 0 77 -2 53 -2 c 0
 33 -2 28 5 28 16 c 0
 28 30 38 31 51 31 c 2
 74 31 l 2
 88 31 89 46 89 72 c 2
 89 299 l 2
 89 322 87 340 67 342 c 2
 49 344 l 2
 39 345 31 346 31 356 c 0
 31 373 38 371 57 374 c 0xd6
 85 378 111 382 132 387 c 0
 142 389 149 390 154 390 c 0
 166 390 167 383 167 363 c 2
 166 295 l 1xb6
EndSplineSet
EndChar

StartChar: n
Encoding: 110 110 13
Width: 506
VWidth: 0
Flags: W
HStem: -2 32<30.0554 82.6138 168.278 222.989 284.038 338.915 424.663 482.992> 347 28<34.0703 81.8525> 366 24<246.309 314.426>
VStem: 87 79<29 347> 342 81<30 348.259>
LayerCount: 3
Fore
SplineSet
342 250 m 2xb8
 342 304 336 366 281 366 c 0xb8
 229 366 166 287 166 240 c 2
 166 74 l 2
 166 48 169 29 184 29 c 2
 191 29 l 2
 208 29 223 28 223 15 c 0
 223 6 222 -2 207 -2 c 0
 186 -2 149 0 129 0 c 0
 106 0 67 -2 40 -2 c 0
 33 -2 30 0 30 12 c 0
 30 28 38 29 46 29 c 2
 72 29 l 2
 86 29 87 78 87 110 c 2
 87 290 l 2
 87 313 86 347 65 347 c 2
 52 347 l 2
 40 347 34 348 34 358 c 0
 34 370 36 374 54 375 c 0xd8
 106 377 146 384 154 384 c 0
 158 384 160 374 160 364 c 2
 160 283 l 1
 190 346 231 390 303 390 c 0
 336 390 423 386 423 267 c 2
 423 74 l 2
 423 48 424 30 439 30 c 2
 468 30 l 2
 481 30 483 27 483 15 c 0
 483 6 482 -2 466 -2 c 0
 445 -1 404 0 384 0 c 0
 363 0 325 -2 304 -2 c 0
 287 -2 284 4 284 16 c 0
 284 28 289 30 304 30 c 2
 327 30 l 2
 341 30 342 58 342 104 c 2
 342 250 l 2xb8
EndSplineSet
EndChar

StartChar: o
Encoding: 111 111 14
Width: 461
VWidth: 0
Flags: W
LayerCount: 3
Fore
SplineSet
431 202 m 0
 431 89 355 -14 225 -14 c 0
 111 -14 26 80 26 194 c 0
 26 315 148 397 240 397 c 0
 342 397 431 310 431 202 c 0
235 375 m 0
 148 375 118 305 118 188 c 0
 118 89 150 12 233 12 c 0
 329 12 344 114 344 198 c 0
 344 278 317 375 235 375 c 0
EndSplineSet
EndChar

StartChar: p
Encoding: 112 112 15
Width: 524
VWidth: 0
Flags: W
LayerCount: 3
Fore
SplineSet
167 319 m 1xec
 199 360 229 390 297 390 c 0
 414 390 492 299 492 187 c 0
 492 80 412 -12 294 -12 c 0
 202 -12 171 48 171 48 c 1
 171 -29 l 2
 171 -62 172 -243 184 -243 c 2
 222 -243 l 2
 242 -243 247 -248 247 -260 c 0
 247 -273 241 -276 222 -276 c 0
 195 -276 154 -275 135 -275 c 0
 114 -275 65 -276 37 -276 c 0
 18 -276 14 -271 14 -258 c 0
 14 -245 19 -242 36 -242 c 0
 50 -242 66 -243 80 -243 c 0
 92 -243 93 -86 93 -29 c 2
 93 293 l 2
 93 336 91 359 71 359 c 2
 49 359 l 2
 36 359 33 364 33 371 c 0
 33 380 37 383 52 384 c 0
 101 387 146 391 154 391 c 0
 166 391 167 388 167 382 c 2
 167 319 l 1xec
401 188 m 0
 401 286 359 367 279 367 c 0
 232 367 189 332 176 289 c 0
 170 270 170 237 170 222 c 2
 170 122 l 2
 170 27 241 12 277 12 c 0
 371 12 401 97 401 188 c 0
EndSplineSet
EndChar

StartChar: q
Encoding: 113 113 16
Width: 478
VWidth: 0
Flags: W
LayerCount: 3
Fore
SplineSet
426 164 m 2
 428 -120 l 2
 429 -218 430 -239 445 -241 c 0
 469 -244 478 -239 478 -254 c 0
 478 -271 475 -271 462 -271 c 0
 440 -271 407 -270 388 -270 c 0
 368 -270 320 -271 292 -272 c 0
 278 -272 271 -272 271 -260 c 0
 271 -249 272 -241 292 -241 c 2
 330 -241 l 2
 345 -241 345 -222 345 -196 c 2
 348 53 l 1
 329 14 270 -12 222 -12 c 0
 106 -12 36 78 36 178 c 0
 36 288 117 393 238 393 c 0
 322 393 342 346 351 346 c 0
 355 346 363 352 372 359 c 2
 399 380 l 2
 404 384 415 391 421 391 c 0
 428 391 434 386 434 374 c 0
 434 347 426 213 426 164 c 2
251 16 m 0
 335 16 349 80 349 168 c 2
 349 263 l 2
 349 329 318 372 250 372 c 0
 164 372 128 299 128 185 c 0
 128 114 148 16 251 16 c 0
EndSplineSet
EndChar

StartChar: r
Encoding: 114 114 17
Width: 340
VWidth: 0
Flags: W
LayerCount: 3
Fore
SplineSet
167 197 m 2xd0
 167 114 l 2
 167 83 168 30 181 30 c 2
 226 30 l 2
 241 30 242 30 242 16 c 0
 242 4 242 -2 226 -2 c 0
 201 -2 149 0 128 0 c 0
 106 0 63 -2 39 -2 c 0
 25 -2 24 5 24 16 c 0
 24 30 27 30 43 30 c 2
 71 30 l 2
 85 30 85 115 85 141 c 2
 85 305 l 2
 85 328 80 349 63 349 c 2
 39 349 l 2
 26 349 22 351 22 361 c 0
 22 375 24 378 42 379 c 0xb0
 80 381 140 389 147 389 c 0
 161 389 163 384 163 377 c 2
 163 293 l 1
 181 340 223 393 275 393 c 0
 305 393 335 375 335 343 c 0
 335 320 318 300 295 300 c 0
 262 300 260 349 237 349 c 0
 218 349 190 317 177 277 c 0
 170 257 167 226 167 197 c 2xd0
EndSplineSet
EndChar

StartChar: s
Encoding: 115 115 18
Width: 340
VWidth: 0
Flags: W
LayerCount: 3
Fore
SplineSet
166 392 m 0x9a
 201 392 228 375 244 375 c 0
 255 375 269 385 278 385 c 0x2a
 283 385 286 382 286 374 c 0
 286 357 281 322 280 292 c 0
 280 279 279 268 269 268 c 0
 263 268 259 286 257 292 c 0
 241 340 216 368 170 368 c 0
 130 368 111 337 111 304 c 0
 111 265 136 251 169 243 c 2
 214 232 l 2
 232 228 267 215 287 187 c 0
 305 163 312 122 312 107 c 0
 312 30 250 -15 172 -15 c 0x9a
 137 -15 105 9 88 9 c 0
 76 9 59 -3 50 -3 c 0
 44 -3 39 3 39 18 c 0
 39 21 47 83 48 104 c 0
 49 114 48 131 59 131 c 0
 72 131 73 109 76 97 c 0x46
 97 21 145 14 180 14 c 0
 216 14 243 41 243 85 c 0
 243 122 207 151 172 162 c 2
 146 170 l 2
 108 182 86 187 59 227 c 0
 49 242 44 258 44 283 c 0
 44 347 99 392 166 392 c 0x9a
EndSplineSet
EndChar

StartChar: t
Encoding: 116 116 19
Width: 264
VWidth: 0
Flags: W
LayerCount: 3
Fore
SplineSet
130 502 m 0xc8
 143 502 147 496 147 480 c 0xc8
 146 448 144 412 144 384 c 1
 206 384 l 2
 228 384 238 382 238 365 c 0
 238 347 232 346 216 346 c 2
 140 346 l 1xd0
 140 131 l 2
 140 80 145 30 186 30 c 0
 210 30 218 36 230 61 c 0
 234 69 238 74 246 73 c 0
 253 72 259 67 259 61 c 0
 259 51 252 33 243 22 c 0
 227 1 195 -14 160 -14 c 0
 76 -14 52 42 52 71 c 0xe0
 52 86 60 219 60 290 c 2
 60 328 l 2xd0
 60 358 27 339 27 354 c 0
 27 364 29 365 39 375 c 0
 72 407 91 436 112 484 c 0
 116 494 119 502 130 502 c 0xc8
EndSplineSet
EndChar

StartChar: u
Encoding: 117 117 20
Width: 498
VWidth: 0
Flags: HWO
HStem: -13 36<183.056 268.739> -1 21G<359 372> 3 32<428.24 486.96> 354 26<17.2166 71.3609 281.026 339.866>
VStem: 73 82<49.8418 351> 343 77<79.8359 354> 350 71<37.1404 90>
LayerCount: 3
Fore
SplineSet
42 379 m 0x9a
 75 379 114 380 132 380 c 0
 160 380 162 375 162 362 c 0
 162 340 155 247 155 188 c 2
 155 162 l 2
 155 67 172 23 233 23 c 0
 296 23 343 90 343 157 c 2
 343 304 l 2
 343 345 339 354 321 354 c 2
 292 354 l 2
 285 354 281 356 281 366 c 0
 281 378 287 380 298 380 c 0
 332 380 397 383 402 383 c 0
 422 383 423 380 423 359 c 0
 423 348 420 247 420 142 c 0x9c
 420 125 420 106 421 86 c 0
 422 51 433 37 451 35 c 2
 466 33 l 2
 481 31 487 27 487 18 c 0
 487 8 483 3 466 3 c 0x3a
 422 2 378 -1 366 -1 c 0x5a
 352 -1 350 2 350 8 c 2
 350 90 l 1
 339 65 286 -13 202 -13 c 0
 96 -13 73 55 73 122 c 0
 73 181 76 227 76 288 c 0
 76 343 73 351 53 351 c 2
 36 351 l 2
 23 351 17 353 17 364 c 0
 17 378 28 379 42 379 c 0x9a
EndSplineSet
EndChar

StartChar: v
Encoding: 118 118 21
Width: 427
VWidth: 0
Flags: W
HStem: -11 21G<176.985 222> 353 29<10 49.6332 152.009 183 276 325.205 372.156 417>
DStem2: 157 318 53 332 0.356788 -0.934185<-22.1122 212.522> 249 141 279 145 0.410479 0.91187<-23.1017 205.42>
LayerCount: 3
Fore
SplineSet
157 318 m 0
 173 273 208 188 224 146 c 0
 231 129 234 121 237 121 c 0
 240 121 242 127 249 141 c 0
 265 173 292 235 316 291 c 0
 320 301 326 324 326 332 c 0
 326 352 309 352 276 353 c 1
 276 382 l 1
 276 382 321 380 349 380 c 0
 378 380 417 382 417 382 c 1
 417 353 l 1
 382 352 376 351 362 320 c 2
 279 145 l 2
 267 120 231 35 213 -11 c 1
 184 -11 l 1
 137 123 l 2
 113 192 85 262 53 332 c 0
 42 355 39 351 10 353 c 1
 10 382 l 1
 10 382 66 380 94 380 c 0
 123 380 183 382 183 382 c 1
 183 353 l 1
 165 353 152 350 152 340 c 0
 152 335 155 324 157 318 c 0
EndSplineSet
Layer: 2
SplineSet
157 318 m 4
 173 273 208 188 224 146 c 4
 231 129 234 121 237 121 c 4
 240 121 242 127 249 141 c 4
 265 173 292 235 316 291 c 4
 320 301 323 311 323 319 c 4
 323 339 309 351 276 352 c 5
 276 382 l 5
 276 382 321 380 349 380 c 4
 378 380 417 382 417 382 c 5
 417 352 l 5
 384 347 367 333 353 302 c 6
 279 145 l 6
 267 120 231 35 213 -11 c 5
 184 -11 l 5
 137 123 l 6
 113 192 88 256 56 326 c 4
 45 349 39 351 10 353 c 5
 10 382 l 5
 10 382 66 380 94 380 c 4
 123 380 183 382 183 382 c 5
 183 353 l 5
 165 353 154 345 154 335 c 4
 154 330 155 324 157 318 c 4
EndSplineSet
EndChar

StartChar: w
Encoding: 119 119 22
Width: 654
VWidth: 0
Flags: W
HStem: -11 21G<160 218.211 413.382 456.68> 353 29<10 45.5485 142.01 178 260 296.327 391.287 420 503 550.306 598.932 644>
VStem: 305 86<263.846 325.857>
DStem2: 239 141 264 136 0.358503 0.933528<-22.9183 151.399> 478 138 497 114 0.386804 0.922162<-23.0267 204.401>
LayerCount: 3
Fore
SplineSet
303 326 m 0
 290 352 290 352 260 353 c 1
 260 382 l 1
 260 382 308 380 336 380 c 0
 365 380 420 382 420 382 c 1
 420 353 l 1
 402 353 391 350 391 335 c 0
 391 330 395 315 405 282 c 0
 420 235 440 175 453 143 c 0
 460 126 463 118 466 118 c 0
 469 118 471 124 478 138 c 0
 494 170 520 235 543 291 c 0
 547 301 552 321 552 329 c 0
 552 349 536 352 503 353 c 1
 503 382 l 1
 503 382 548 380 576 380 c 0
 605 380 644 382 644 382 c 1
 644 353 l 1
 610 352 601 349 587 318 c 2
 497 114 l 1
 449 -11 l 1
 420 -11 l 1
 375 125 l 2
 362 164 347 211 331 252 c 0
 326 264 324 272 322 272 c 0
 320 272 317 264 312 252 c 2
 264 136 l 2
 246 90 211 -11 211 -11 c 1
 185 -11 l 1
 135 104 96 212 48 333 c 0
 40 352 38 351 10 353 c 1
 10 382 l 1
 10 382 61 380 89 380 c 0
 118 380 178 382 178 382 c 1
 178 353 l 1
 156 353 142 353 142 341 c 0
 142 337 144 326 146 320 c 0
 158 281 196 191 214 146 c 0
 221 129 224 121 227 121 c 0
 230 121 232 127 239 141 c 0
 247 158 276 228 293 272 c 0
 299 289 305 302 305 314 c 0
 305 317 304 323 303 326 c 0
EndSplineSet
Layer: 2
SplineSet
303 326 m 4
 290 352 290 350 260 353 c 5
 260 382 l 5
 260 382 308 380 336 380 c 4
 365 380 420 382 420 382 c 5
 420 353 l 5
 402 353 391 345 391 335 c 4
 391 330 395 315 405 282 c 4
 420 235 440 175 453 143 c 4
 460 126 463 118 466 118 c 4
 469 118 471 124 478 138 c 4
 494 170 520 235 543 291 c 4
 547 301 550 311 550 319 c 4
 550 339 536 351 503 352 c 5
 503 382 l 5
 503 382 548 380 576 380 c 4
 605 380 644 382 644 382 c 5
 644 352 l 5
 611 347 594 333 580 302 c 6
 497 114 l 5
 449 -11 l 5
 420 -11 l 5
 375 125 l 6
 362 164 347 211 331 252 c 4
 326 264 324 272 322 272 c 4
 320 272 317 264 312 252 c 6
 264 136 l 6
 246 90 211 -11 211 -11 c 5
 185 -11 l 5
 135 104 98 207 50 328 c 4
 42 347 38 351 10 353 c 5
 10 382 l 5
 10 382 61 380 89 380 c 4
 118 380 178 382 178 382 c 5
 178 353 l 5
 156 353 143 348 143 336 c 4
 143 332 144 326 146 320 c 4
 158 281 196 191 214 146 c 4
 221 129 224 121 227 121 c 4
 230 121 232 127 239 141 c 4
 247 158 276 228 293 272 c 4
 299 289 305 302 305 314 c 4
 305 317 304 323 303 326 c 4
EndSplineSet
EndChar

StartChar: x
Encoding: 120 120 23
Width: 482
VWidth: 0
Flags: W
HStem: -2 31<10 70.5725 120.017 171 252 294.989 410.037 457> 353 29<15 60.3186 165.007 193 280 318.988 371.702 426>
DStem2: 180 318 63 336 0.633394 -0.77383<-29.3963 104.625 142.041 284.686> 95 69 133 66 0.656464 0.754358<-4.5269 143.386 224.447 351.331>
LayerCount: 3
Fore
SplineSet
171 29 m 1
 171 -2 l 1
 171 -2 111 0 83 0 c 0
 54 0 10 -2 10 -2 c 1
 10 29 l 1
 57 32 63 33 95 69 c 2
 193 180 l 1
 63 336 l 2
 48 354 45 351 15 353 c 1
 15 382 l 1
 15 382 76 380 104 380 c 0
 133 380 193 382 193 382 c 1
 193 353 l 1
 175 353 165 351 165 344 c 0
 165 338 173 327 180 318 c 2
 245 236 l 1
 245 236 292 289 310 320 c 0
 313 326 319 336 319 340 c 0
 319 351 302 353 280 353 c 1
 280 382 l 1
 280 382 330 380 358 380 c 0
 387 380 426 382 426 382 c 1
 426 353 l 1
 390 351 384.313403446 354.374759454 361 328 c 2
 262 216 l 1
 397 58 l 2
 422 30 426 30 457 29 c 1
 457 -2 l 1
 457 -2 389 0 361 0 c 0
 332 0 252 -2 252 -2 c 1
 252 29 l 1
 280 30 295 33 295 44 c 0
 295 49 292 56 284 66 c 2
 210 159 l 25
 133 66 l 2
 126 58 120 46 120 41 c 0
 120 29 144 31 171 29 c 1
EndSplineSet
Layer: 2
SplineSet
171 31 m 5
 171 -2 l 5
 171 -2 111 0 83 0 c 4
 54 0 10 -2 10 -2 c 5
 10 31 l 5
 55 37 72 43 104 79 c 6
 193 180 l 5
 69 329 l 6
 54 347 45 351 15 353 c 5
 15 382 l 5
 15 382 76 380 104 380 c 4
 133 380 193 382 193 382 c 5
 193 353 l 5
 175 353 168 348 168 341 c 4
 168 335 173 327 180 318 c 6
 245 236 l 5
 245 236 292 289 310 320 c 4
 313 326 315 331 315 335 c 4
 315 346 302 351 280 351 c 5
 280 382 l 5
 280 382 330 380 358 380 c 4
 387 380 426 382 426 382 c 5
 426 351 l 5
 391 346 382 351 354 320 c 6
 262 216 l 5
 397 58 l 5
 424 29 425 35 457 30 c 5
 457 -2 l 5
 457 -2 389 0 361 0 c 4
 332 0 252 -2 252 -2 c 5
 252 30 l 5
 274 31 291 38 291 51 c 4
 291 55 289 61 284 66 c 6
 210 159 l 29
 133 66 l 6
 126 58 123 52 123 47 c 4
 123 35 144 33 171 31 c 5
EndSplineSet
EndChar

StartChar: y
Encoding: 121 121 24
Width: 440
VWidth: 0
Flags: W
HStem: -279 106<65.9826 131.859> 353 29<10 49.6857 152.008 183 289 338.693 385.197 430>
DStem2: 157 323 54 331 0.419749 -0.90764<-17.3542 227.221> 208 -2 170 -179 0.37688 0.926262<-176.4 0 127.244 357.835>
LayerCount: 3
Fore
SplineSet
157 323 m 0
 174 281 215 194 235 149 c 0
 244 129 251 117 253 117 c 0
 256 117 260 126 268 142 c 0
 284 174 306 235 329 291 c 0
 333 301 340 323 340 331 c 0
 340 351 322 352 289 353 c 1
 289 382 l 1
 289 382 334 380 362 380 c 0
 391 380 430 382 430 382 c 1
 430 353 l 1
 395 352 385 346 371 315 c 2
 297 145 l 2
 286 120 256 38 238 -8 c 2
 170 -179 l 2
 156 -215 138 -279 92 -279 c 0
 68 -279 46 -262 46 -240 c 0
 46 -194 84 -182 110 -173 c 0
 129 -166 143 -149 152 -130 c 0
 178 -78 208 -2 208 -2 c 1
 153 123 l 2
 124 191 89 260 54 331 c 0
 43 354 39 351 10 353 c 1
 10 382 l 1
 10 382 66 380 94 380 c 0
 123 380 183 382 183 382 c 1
 183 353 l 1
 163 353 152 351 152 340 c 0
 152 336 155 327 157 323 c 0
EndSplineSet
EndChar

StartChar: z
Encoding: 122 122 25
Width: 374
VWidth: 0
Flags: W
HStem: 0 29<144.806 255.842> 353 29<111.088 227.996>
VStem: 35 26<251 290.746> 228 108<326.897 373> 318 26<93.7881 139>
DStem2: 31 30 146 53 0.529906 0.848057<60.799 371.993>
LayerCount: 3
Fore
SplineSet
335 -2 m 1xe8
 335 -2 262 0 158 0 c 0
 113 0 49 -2 38 -2 c 0
 26 -2 26 5 26 14 c 0
 26 19 28 26 31 30 c 0
 78 100 144 203 186 272 c 0
 203 300 228 337 228 346 c 0
 228 353 223 353 209 353 c 2
 202 353 l 2
 192 353 131 353 106 336 c 0
 78 317 71 283 61 251 c 1
 35 251 l 1
 36 264 40 345 43 383 c 1
 43 383 163 382 208 382 c 0
 262 382 315 384 325 384 c 0
 335 384 336 377 336 369 c 0xf0
 336 362 333 352 330 348 c 0
 293 301 213 170 146 53 c 0
 143 47 133 29 148 29 c 0
 199 29 229 31 262 46 c 0
 303 64 309 103 318 139 c 1
 344 139 l 1
 340 103 336 38 335 -2 c 1xe8
EndSplineSet
EndChar

StartChar: H
Encoding: 72 72 33
Width: 761
VWidth: 0
Flags: W
HStem: 0 32<18 100.307 217.693 300 435 517.307 634.693 717> 311 32<210 525> 603 32<33 100.307 217.693 285 450 517.307 634.693 702>
VStem: 108 102<32.8589 311 343 602.141> 525 102<32.8589 311 343 602.141>
LayerCount: 3
Fore
SplineSet
237 32 m 2
 300 32 l 1
 300 -4 l 1
 300 -4 240 0 175 0 c 2
 143 0 l 2
 78 0 18 -4 18 -4 c 1
 18 32 l 1
 81 32 l 2
 109 32 106 80 107 134 c 0
 107 154 108 174 108 192 c 2
 108 443 l 2
 108 461 107 481 107 501 c 0
 106 555 109 603 81 603 c 2
 33 603 l 1
 33 639 l 1
 33 639 78 635 143 635 c 2
 175 635 l 2
 240 635 285 639 285 639 c 1
 285 603 l 1
 237 603 l 2
 209 603 212 555 211 501 c 0
 211 481 210 461 210 443 c 2
 210 343 l 1
 525 343 l 1
 525 443 l 2
 525 461 524 481 524 501 c 0
 523 555 526 603 498 603 c 2
 450 603 l 1
 450 639 l 1
 450 639 495 635 560 635 c 2
 592 635 l 2
 657 635 702 639 702 639 c 1
 702 603 l 1
 654 603 l 2
 626 603 629 555 628 501 c 0
 628 481 627 461 627 443 c 2
 627 192 l 2
 627 174 628 154 628 134 c 0
 629 80 626 32 654 32 c 2
 717 32 l 1
 717 -4 l 1
 717 -4 657 0 592 0 c 2
 560 0 l 2
 495 0 435 -4 435 -4 c 1
 435 32 l 1
 498 32 l 2
 526 32 523 80 524 134 c 0
 524 154 525 174 525 192 c 2
 525 311 l 1
 210 311 l 1
 210 192 l 2
 210 174 211 154 211 134 c 0
 212 80 209 32 237 32 c 2
EndSplineSet
EndChar

StartChar: I
Encoding: 73 73 34
Width: 329
VWidth: 0
Flags: W
HStem: 0 32<18 100.307 217.693 300> 603 32<28 100.307 217.693 290>
VStem: 108 102<32.8589 602.141>
LayerCount: 3
Fore
SplineSet
237 32 m 2
 300 32 l 1
 300 -4 l 1
 300 -4 240 0 175 0 c 2
 143 0 l 2
 78 0 18 -4 18 -4 c 1
 18 32 l 1
 81 32 l 2
 109 32 106 80 107 134 c 0
 107 154 108 174 108 192 c 2
 108 443 l 2
 108 461 107 481 107 501 c 0
 106 555 109 603 81 603 c 2
 28 603 l 1
 28 639 l 1
 28 639 78 635 143 635 c 2
 175 635 l 2
 240 635 290 639 290 639 c 1
 290 603 l 1
 237 603 l 2
 209 603 212 555 211 501 c 0
 211 481 210 461 210 443 c 2
 210 192 l 2
 210 174 211 154 211 134 c 0
 212 80 209 32 237 32 c 2
EndSplineSet
EndChar

StartChar: J
Encoding: 74 74 35
Width: 313
VWidth: 0
Flags: W
HStem: -213 23<-11.9142 67.1308> 603 32<28 100.307 217.693 280>
VStem: -122 102<-178.263 -80.099> 108 102<-98.8594 602.141>
LayerCount: 3
Fore
SplineSet
108 150 m 2
 108 443 l 2
 108 461 107 481 107 501 c 0
 106 555 109 603 81 603 c 2
 28 603 l 1
 28 639 l 1
 28 639 78 635 143 635 c 2
 175 635 l 2
 240 635 280 639 280 639 c 1
 280 603 l 1
 237 603 l 2
 209 603 212 555 211 501 c 0
 211 481 210 461 210 443 c 2
 210 129 l 2
 210 91 210 42 207 0 c 0
 196 -168 120 -213 24 -213 c 0
 -66 -213 -122 -185 -122 -128 c 0
 -122 -97 -104 -71 -72 -71 c 0
 -35 -71 -20 -91 -20 -125 c 0
 -20 -135 -21 -139 -21 -150 c 0
 -21 -175 -12 -190 30 -190 c 0
 65 -190 81 -170 89 -143 c 0
 106 -86 108 72 108 150 c 2
EndSplineSet
EndChar

StartChar: zero
Encoding: 48 48 52
Width: 236
VWidth: 0
Flags: W
HStem: 174 112<75.9218 164.078>
VStem: 64 112<185.922 274.078>
LayerCount: 3
Fore
SplineSet
64 230 m 0
 64 261 89 286 120 286 c 0
 151 286 176 261 176 230 c 0
 176 199 151 174 120 174 c 0
 89 174 64 199 64 230 c 0
EndSplineSet
EndChar

StartChar: one
Encoding: 49 49 53
Width: 236
VWidth: 0
Flags: W
HStem: 174 112<75.9218 164.078>
VStem: 64 112<185.922 274.078>
LayerCount: 3
Fore
SplineSet
64 230 m 0
 64 261 89 286 120 286 c 0
 151 286 176 261 176 230 c 0
 176 199 151 174 120 174 c 0
 89 174 64 199 64 230 c 0
EndSplineSet
EndChar

StartChar: two
Encoding: 50 50 54
Width: 236
VWidth: 0
Flags: W
HStem: 174 112<75.9218 164.078>
VStem: 64 112<185.922 274.078>
LayerCount: 3
Fore
SplineSet
64 230 m 0
 64 261 89 286 120 286 c 0
 151 286 176 261 176 230 c 0
 176 199 151 174 120 174 c 0
 89 174 64 199 64 230 c 0
EndSplineSet
EndChar

StartChar: three
Encoding: 51 51 55
Width: 236
VWidth: 0
Flags: W
HStem: 174 112<75.9218 164.078>
VStem: 64 112<185.922 274.078>
LayerCount: 3
Fore
SplineSet
64 230 m 0
 64 261 89 286 120 286 c 0
 151 286 176 261 176 230 c 0
 176 199 151 174 120 174 c 0
 89 174 64 199 64 230 c 0
EndSplineSet
EndChar

StartChar: four
Encoding: 52 52 56
Width: 236
VWidth: 0
Flags: W
HStem: 174 112<75.9218 164.078>
VStem: 64 112<185.922 274.078>
LayerCount: 3
Fore
SplineSet
64 230 m 0
 64 261 89 286 120 286 c 0
 151 286 176 261 176 230 c 0
 176 199 151 174 120 174 c 0
 89 174 64 199 64 230 c 0
EndSplineSet
EndChar

StartChar: five
Encoding: 53 53 57
Width: 236
VWidth: 0
Flags: W
HStem: 174 112<75.9218 164.078>
VStem: 64 112<185.922 274.078>
LayerCount: 3
Fore
SplineSet
64 230 m 0
 64 261 89 286 120 286 c 0
 151 286 176 261 176 230 c 0
 176 199 151 174 120 174 c 0
 89 174 64 199 64 230 c 0
EndSplineSet
EndChar

StartChar: six
Encoding: 54 54 58
Width: 236
VWidth: 0
Flags: W
HStem: 174 112<75.9218 164.078>
VStem: 64 112<185.922 274.078>
LayerCount: 3
Fore
SplineSet
64 230 m 0
 64 261 89 286 120 286 c 0
 151 286 176 261 176 230 c 0
 176 199 151 174 120 174 c 0
 89 174 64 199 64 230 c 0
EndSplineSet
EndChar

StartChar: seven
Encoding: 55 55 59
Width: 236
VWidth: 0
Flags: W
HStem: 174 112<75.9218 164.078>
VStem: 64 112<185.922 274.078>
LayerCount: 3
Fore
SplineSet
64 230 m 0
 64 261 89 286 120 286 c 0
 151 286 176 261 176 230 c 0
 176 199 151 174 120 174 c 0
 89 174 64 199 64 230 c 0
EndSplineSet
EndChar

StartChar: eight
Encoding: 56 56 60
Width: 236
VWidth: 0
Flags: W
HStem: 174 112<75.9218 164.078>
VStem: 64 112<185.922 274.078>
LayerCount: 3
Fore
SplineSet
64 230 m 0
 64 261 89 286 120 286 c 0
 151 286 176 261 176 230 c 0
 176 199 151 174 120 174 c 0
 89 174 64 199 64 230 c 0
EndSplineSet
EndChar

StartChar: nine
Encoding: 57 57 61
Width: 236
VWidth: 0
Flags: W
HStem: 174 112<75.9218 164.078>
VStem: 64 112<185.922 274.078>
LayerCount: 3
Fore
SplineSet
64 230 m 0
 64 261 89 286 120 286 c 0
 151 286 176 261 176 230 c 0
 176 199 151 174 120 174 c 0
 89 174 64 199 64 230 c 0
EndSplineSet
EndChar

StartChar: period
Encoding: 46 46 63
Width: 276
VWidth: 0
Flags: W
HStem: -14 122<93.1072 184.893>
VStem: 78 122<1.10723 92.8928>
LayerCount: 3
Fore
SplineSet
78 47 m 0
 78 80 106 108 139 108 c 0
 172 108 200 80 200 47 c 0
 200 14 172 -14 139 -14 c 0
 106 -14 78 14 78 47 c 0
EndSplineSet
EndChar

StartChar: colon
Encoding: 58 58 64
Width: 276
VWidth: 0
Flags: W
HStem: -14 122<93.1072 184.893> 271 122<93.1072 184.893>
VStem: 78 122<1.10723 92.8928 286.107 377.893>
LayerCount: 3
Fore
SplineSet
78 332 m 0
 78 365 106 393 139 393 c 0
 172 393 200 365 200 332 c 0
 200 299 172 271 139 271 c 0
 106 271 78 299 78 332 c 0
78 47 m 0
 78 80 106 108 139 108 c 0
 172 108 200 80 200 47 c 0
 200 14 172 -14 139 -14 c 0
 106 -14 78 14 78 47 c 0
EndSplineSet
EndChar

StartChar: semicolon
Encoding: 59 59 65
Width: 276
VWidth: 0
Flags: W
HStem: 30 82<107.054 193.5> 271 122<93.1072 184.893>
VStem: 78 122<286.107 377.893> 198 28<-71.3916 29.8588>
LayerCount: 3
Fore
SplineSet
130 -6 m 4xd0
 97 -6 69 18 69 51 c 4
 69 84 97 112 130 112 c 4
 201 112 226 46 226 -17 c 4
 226 -86 186 -158 124 -182 c 5
 106 -148 l 5
 138 -126 198 -94 198 -7 c 4
 198 7 196 30 191 30 c 4
 187 30 166 -6 130 -6 c 4xd0
78 332 m 0xe0
 78 365 106 393 139 393 c 0
 172 393 200 365 200 332 c 0
 200 299 172 271 139 271 c 0
 106 271 78 299 78 332 c 0xe0
EndSplineSet
Layer: 2
SplineSet
130 -6 m 4
 97 -6 69 18 69 51 c 4
 69 84 97 112 130 112 c 4
 201 112 226 46 226 -17 c 4
 226 -86 186 -158 124 -182 c 5
 106 -148 l 5
 138 -126 198 -94 198 -7 c 4
 198 7 196 30 191 30 c 4
 187 30 166 -6 130 -6 c 4
78 332 m 4xe0
 78 365 106 393 139 393 c 4
 172 393 200 365 200 332 c 4
 200 299 172 271 139 271 c 4
 106 271 78 299 78 332 c 4xe0
EndSplineSet
EndChar

StartChar: exclam
Encoding: 33 33 66
Width: 276
VWidth: 0
Flags: W
HStem: -14 122<93.1072 184.893>
VStem: 78 122<1.10723 92.8928> 85 108<291.777 626.692>
LayerCount: 3
Fore
SplineSet
78 47 m 0xc0
 78 80 106 108 139 108 c 0
 172 108 200 80 200 47 c 0
 200 14 172 -14 139 -14 c 0
 106 -14 78 14 78 47 c 0xc0
139 651 m 0
 192 651 193 515 193 482 c 2
 193 475 l 2
 193 379 174 244 139 244 c 0
 104 244 85 379 85 475 c 2
 85 482 l 2xa0
 85 515 86 651 139 651 c 0
EndSplineSet
EndChar

StartChar: question
Encoding: 63 63 67
Width: 433
VWidth: 0
Flags: W
HStem: -14 122<95.1072 186.893> 274 29<186.364 259.492> 626 23<135.3 231.57>
VStem: 41 75<521.314 609.208> 80 122<1.10723 92.8928> 127 32<202 295.998 319.644 418> 308 90<355.624 531.32>
LayerCount: 3
Fore
SplineSet
127 202 m 1xf6
 127 418 l 1
 160 418 l 1
 160 381 l 2
 160 346 166 303 214 303 c 0
 288 303 308 382 308 458 c 0
 308 550 262 626 186 626 c 0
 141 626 116 612 116 580 c 0
 116 568 117 562 117 550 c 0
 117 528 100 516 82 516 c 0
 61 516 41 533 41 562 c 0
 41 623 124 649 192 649 c 0
 284 649 398 578 398 431 c 0
 398 345 320 274 245 274 c 0
 220 274 201 281 189 287 c 0
 184 289 174 296 167 296 c 0
 162 296 159 293 159 282 c 2
 159 202 l 1
 127 202 l 1xf6
80 47 m 0xea
 80 80 108 108 141 108 c 0
 174 108 202 80 202 47 c 0
 202 14 174 -14 141 -14 c 0
 108 -14 80 14 80 47 c 0xea
EndSplineSet
EndChar

StartChar: hyphen
Encoding: 45 45 68
Width: 276
VWidth: 0
Flags: W
HStem: 147 81<27.1638 257.836>
VStem: 27 231<147.164 227.836>
LayerCount: 3
Fore
SplineSet
258 172 m 2
 258 156 249 147 233 147 c 2
 52 147 l 2
 36 147 27 156 27 172 c 2
 27 203 l 2
 27 219 36 228 52 228 c 2
 233 228 l 2
 249 228 258 219 258 203 c 2
 258 172 l 2
EndSplineSet
EndChar

StartChar: quoteright
Encoding: 8217 8217 69
Width: 277
VWidth: 0
Flags: W
HStem: 549 82<98.0536 184.5>
VStem: 189 28<447.608 548.859>
LayerCount: 3
Fore
SplineSet
121 513 m 0
 88 513 60 537 60 570 c 0
 60 603 88 631 121 631 c 0
 192 631 217 565 217 502 c 0
 217 433 177 361 115 337 c 1
 97 371 l 1
 129 393 189 425 189 512 c 0
 189 526 187 549 182 549 c 0
 178 549 157 513 121 513 c 0
EndSplineSet
Layer: 2
SplineSet
121 506 m 4
 88 506 60 530 60 563 c 4
 60 596 88 624 121 624 c 4
 192 624 217 558 217 495 c 4
 217 426 177 354 115 330 c 5
 97 364 l 5
 129 386 189 418 189 505 c 4
 189 519 187 542 182 542 c 4
 178 542 157 506 121 506 c 4
EndSplineSet
EndChar

StartChar: comma
Encoding: 44 44 70
Width: 276
VWidth: 0
Flags: W
HStem: 30 82<107.054 193.5>
VStem: 198 28<-71.3916 29.8588>
LayerCount: 3
Back
SplineSet
130 -6 m 4
 97 -6 69 18 69 51 c 4
 69 84 97 112 130 112 c 4
 201 112 226 46 226 -17 c 4
 226 -89 173 -175 132 -175 c 4
 116 -175 109 -168 109 -159 c 4
 109 -148 113 -144 121 -138 c 4
 146 -118 198 -90 198 -7 c 4
 198 7 196 30 191 30 c 4
 187 30 166 -6 130 -6 c 4
EndSplineSet
Fore
SplineSet
130 -6 m 0
 97 -6 69 18 69 51 c 0
 69 84 97 112 130 112 c 0
 201 112 226 46 226 -17 c 0
 226 -86 186 -158 124 -182 c 1
 106 -148 l 1
 138 -126 198 -94 198 -7 c 0
 198 7 196 30 191 30 c 0
 187 30 166 -6 130 -6 c 0
EndSplineSet
Layer: 2
SplineSet
130 -6 m 4
 97 -6 69 18 69 51 c 4
 69 84 97 112 130 112 c 4
 201 112 226 46 226 -17 c 4
 226 -86 186 -158 124 -182 c 5
 106 -148 l 5
 138 -126 198 -94 198 -7 c 4
 198 7 196 30 191 30 c 4
 187 30 166 -6 130 -6 c 4
130 -6 m 0
 97 -6 69 18 69 51 c 0
 69 84 97 112 130 112 c 0
 201 112 226 46 226 -17 c 0
 226 -89 173 -175 132 -175 c 0
 116 -175 109 -168 109 -159 c 0
 109 -148 113 -144 121 -138 c 0
 146 -118 198 -90 198 -7 c 0
 198 7 196 30 191 30 c 0
 187 30 166 -6 130 -6 c 0
EndSplineSet
EndChar

StartChar: quotedblleft
Encoding: 8220 8220 71
Width: 497
VWidth: 0
Flags: W
HStem: 337 82<92.5 178.946 312.5 398.946>
VStem: 60 28<419.141 520.392> 280 28<419.141 520.392>
LayerCount: 3
Fore
SplineSet
156 455 m 0
 189 455 217 431 217 398 c 0
 217 365 189 337 156 337 c 0
 85 337 60 403 60 466 c 0
 60 535 100 607 162 631 c 1
 180 597 l 1
 148 575 88 543 88 456 c 0
 88 442 90 419 95 419 c 0
 99 419 120 455 156 455 c 0
376 455 m 0
 409 455 437 431 437 398 c 0
 437 365 409 337 376 337 c 0
 305 337 280 403 280 466 c 0
 280 535 320 607 382 631 c 1
 400 597 l 1
 368 575 308 543 308 456 c 0
 308 442 310 419 315 419 c 0
 319 419 340 455 376 455 c 0
EndSplineSet
EndChar

StartChar: quotedblright
Encoding: 8221 8221 72
Width: 497
VWidth: 0
Flags: W
HStem: 549 82<98.0536 184.5 318.054 404.5>
VStem: 189 28<447.608 548.859> 409 28<447.608 548.859>
LayerCount: 3
Fore
SplineSet
341 513 m 0
 308 513 280 537 280 570 c 0
 280 603 308 631 341 631 c 0
 412 631 437 565 437 502 c 0
 437 433 397 361 335 337 c 1
 317 371 l 1
 349 393 409 425 409 512 c 0
 409 526 407 549 402 549 c 0
 398 549 377 513 341 513 c 0
121 513 m 0
 88 513 60 537 60 570 c 0
 60 603 88 631 121 631 c 0
 192 631 217 565 217 502 c 0
 217 433 177 361 115 337 c 1
 97 371 l 1
 129 393 189 425 189 512 c 0
 189 526 187 549 182 549 c 0
 178 549 157 513 121 513 c 0
EndSplineSet
EndChar

StartChar: quoteleft
Encoding: 8216 8216 73
Width: 277
VWidth: 0
Flags: W
HStem: 337 82<92.5 178.946>
VStem: 60 28<419.141 520.392>
LayerCount: 3
Fore
SplineSet
156 455 m 0
 189 455 217 431 217 398 c 0
 217 365 189 337 156 337 c 0
 85 337 60 403 60 466 c 0
 60 535 100 607 162 631 c 1
 180 597 l 1
 148 575 88 543 88 456 c 0
 88 442 90 419 95 419 c 0
 99 419 120 455 156 455 c 0
EndSplineSet
Layer: 2
SplineSet
156 455 m 4
 189 455 217 431 217 398 c 4
 217 365 189 337 156 337 c 4
 85 337 60 403 60 466 c 4
 60 535 100 607 162 631 c 5
 180 597 l 5
 148 575 88 543 88 456 c 4
 88 442 90 419 95 419 c 4
 99 419 120 455 156 455 c 4
EndSplineSet
EndChar

StartChar: endash
Encoding: 8211 8211 74
Width: 453
VWidth: 0
Flags: W
HStem: 160 53<25 428>
LayerCount: 3
Fore
SplineSet
428 176 m 2
 428 166 428 160 412 160 c 2
 41 160 l 2
 25 160 25 166 25 176 c 2
 25 197 l 2
 25 207 25 213 41 213 c 2
 412 213 l 2
 428 213 428 207 428 197 c 2
 428 176 l 2
EndSplineSet
EndChar

StartChar: emdash
Encoding: 8212 8212 75
Width: 779
VWidth: 0
Flags: W
HStem: 160 53<25 754>
LayerCount: 3
Fore
SplineSet
754 176 m 2
 754 166 754 160 738 160 c 2
 41 160 l 2
 25 160 25 166 25 176 c 2
 25 197 l 2
 25 207 25 213 41 213 c 2
 738 213 l 2
 754 213 754 207 754 197 c 2
 754 176 l 2
EndSplineSet
EndChar
